<svg xmlns="http://www.w3.org/2000/svg" version="1.1" xmlns:xlink="http://www.w3.org/1999/xlink" xmlns:svgjs="http://svgjs.com/svgjs" width="1920" height="1080" preserveAspectRatio="none" viewBox="0 0 1920 1080"><g mask="url(&quot;#SvgjsMask1028&quot;)" fill="none"><path d="M53.73 282.22L81.11 282.22L81.11 357.74L53.73 357.74z" fill="rgba(50, 245, 146, 0.32)"></path><path d="M655.13 608.4a31.56 31.56 0 1 0-39.98 48.84z" fill="rgba(95, 199, 233, 0.44)"></path><path d="M189.05 750.73L286.66 750.73L286.66 762.22L189.05 762.22z" fill="rgba(95, 199, 233, 0.44)"></path><path d="M1588.29 326.96 a8.29 8.29 0 1 0 16.58 0 a8.29 8.29 0 1 0 -16.58 0z" fill="rgba(50, 245, 146, 0.32)"></path><path d="M577.7 699.82L682.03 699.82L682.03 804.15L577.7 804.15z" stroke="rgba(95, 199, 233, 0.44)"></path><path d="M595.75 137.29L686.34 137.29L686.34 227.88L595.75 227.88z" stroke="rgba(50, 245, 146, 0.32)"></path><path d="M1418.52 793.88L1484.33 793.88L1484.33 859.69L1418.52 859.69z" stroke="rgba(95, 199, 233, 0.44)"></path><path d="M1796.12 185.03L1835.45 185.03L1835.45 207.95L1796.12 207.95z" stroke="rgba(50, 245, 146, 0.32)"></path><path d="M336.31 291.29L391.12 291.29L391.12 395.56L336.31 395.56z" fill="rgba(50, 245, 146, 0.32)"></path><path d="M1692.89 292.86L1725.43 292.86L1725.43 386.3L1692.89 386.3z" stroke="rgba(50, 245, 146, 0.32)"></path><path d="M53.8 1070.44 a40.7 40.7 0 1 0 81.4 0 a40.7 40.7 0 1 0 -81.4 0z" fill="rgba(230, 45, 179, 0.34)"></path><path d="M1825.45 573.44a76.93 76.93 0 1 0-113.77 103.58z" stroke="rgba(230, 45, 179, 0.34)"></path><path d="M1256.86 657.61L1364.28 657.61L1364.28 765.03L1256.86 765.03z" fill="rgba(95, 199, 233, 0.44)"></path><path d="M1558.45 1046.84 a93.29 93.29 0 1 0 186.58 0 a93.29 93.29 0 1 0 -186.58 0z" stroke="rgba(230, 45, 179, 0.34)"></path><path d="M1577.56 844.8L1673.58 844.8L1673.58 886.56L1577.56 886.56z" fill="rgba(230, 45, 179, 0.34)"></path><path d="M178.49 813.66L278.48 813.66L278.48 913.65L178.49 913.65z" fill="rgba(230, 45, 179, 0.34)"></path><path d="M849.11 287.22L867.73 287.22L867.73 305.84L849.11 305.84z" stroke="rgba(50, 245, 146, 0.32)"></path><path d="M442.07 494.82L487.54 494.82L487.54 540.29L442.07 540.29z" fill="rgba(230, 45, 179, 0.34)"></path><path d="M1192.75 384.89L1228.83 384.89L1228.83 420.97L1192.75 420.97z" stroke="rgba(50, 245, 146, 0.32)"></path><path d="M1631.26 727.95L1684.25 727.95L1684.25 770.75L1631.26 770.75z" stroke="rgba(230, 45, 179, 0.34)"></path><path d="M1802.41 1023.6L1874.21 1023.6L1874.21 1053.86L1802.41 1053.86z" fill="rgba(95, 199, 233, 0.44)"></path><path d="M1476.68 353.09a22.18 22.18 0 1 0 33.15 29.48z" fill="rgba(230, 45, 179, 0.34)"></path><path d="M866.49 440.16L920.1 440.16L920.1 490.75L866.49 490.75z" fill="rgba(230, 45, 179, 0.34)"></path></g><defs><mask id="SvgjsMask1028"><rect width="1920" height="1080" fill="#ffffff"></rect></mask></defs></svg>