<svg xmlns="http://www.w3.org/2000/svg" version="1.1" xmlns:xlink="http://www.w3.org/1999/xlink" xmlns:svgjs="http://svgjs.com/svgjs" width="1440" height="560" preserveAspectRatio="none" viewBox="0 0 1440 560"><g mask="url(&quot;#SvgjsMask1016&quot;)" fill="none"><path d="M-85.33 410.27L-85.33 410.27" stroke="rgba(81, 237, 194, 0.15)" stroke-width="1.5"></path><path d="M-85.33 410.27L-104.48 515.9" stroke="rgba(81, 237, 194, 0.15)" stroke-width="1.5"></path><path d="M-85.33 410.27L39.04 488.88" stroke="rgba(81, 237, 194, 0.15)" stroke-width="1.5"></path><path d="M-104.48 515.9L-104.48 515.9" stroke="rgba(81, 237, 194, 0.15)" stroke-width="1.5"></path><path d="M-104.48 515.9L39.04 488.88" stroke="rgba(81, 237, 194, 0.15)" stroke-width="1.5"></path><path d="M-104.48 515.9L-51.85 666.94" stroke="rgba(81, 237, 194, 0.15)" stroke-width="1.5"></path><path d="M-104.48 515.9L37.65 645.28" stroke="rgba(81, 237, 194, 0.15)" stroke-width="1.5"></path><path d="M-104.48 515.9L99.04 352.06" stroke="rgba(81, 237, 194, 0.15)" stroke-width="1.5"></path><path d="M-51.85 666.94L-51.85 666.94" stroke="rgba(81, 237, 194, 0.15)" stroke-width="1.5"></path><path d="M-51.85 666.94L37.65 645.28" stroke="rgba(81, 237, 194, 0.15)" stroke-width="1.5"></path><path d="M-51.85 666.94L39.04 488.88" stroke="rgba(81, 237, 194, 0.15)" stroke-width="1.5"></path><path d="M-51.85 666.94L189.29 675.97" stroke="rgba(81, 237, 194, 0.15)" stroke-width="1.5"></path><path d="M-51.85 666.94L-85.33 410.27" stroke="rgba(81, 237, 194, 0.15)" stroke-width="1.5"></path><path d="M99.04 352.06L99.04 352.06" stroke="rgba(81, 237, 194, 0.15)" stroke-width="1.5"></path><path d="M99.04 352.06L216.73 399.49" stroke="rgba(81, 237, 194, 0.15)" stroke-width="1.5"></path><path d="M99.04 352.06L39.04 488.88" stroke="rgba(81, 237, 194, 0.15)" stroke-width="1.5"></path><path d="M99.04 352.06L204.79 488.89" stroke="rgba(81, 237, 194, 0.15)" stroke-width="1.5"></path><path d="M39.04 488.88L39.04 488.88" stroke="rgba(81, 237, 194, 0.15)" stroke-width="1.5"></path><path d="M39.04 488.88L37.65 645.28" stroke="rgba(81, 237, 194, 0.15)" stroke-width="1.5"></path><path d="M37.65 645.28L37.65 645.28" stroke="rgba(81, 237, 194, 0.15)" stroke-width="1.5"></path><path d="M37.65 645.28L189.29 675.97" stroke="rgba(81, 237, 194, 0.15)" stroke-width="1.5"></path><path d="M216.73 399.49L216.73 399.49" stroke="rgba(81, 237, 194, 0.15)" stroke-width="1.5"></path><path d="M216.73 399.49L204.79 488.89" stroke="rgba(81, 237, 194, 0.15)" stroke-width="1.5"></path><path d="M216.73 399.49L339.55 377.87" stroke="rgba(81, 237, 194, 0.15)" stroke-width="1.5"></path><path d="M204.79 488.89L204.79 488.89" stroke="rgba(81, 237, 194, 0.15)" stroke-width="1.5"></path><path d="M204.79 488.89L39.04 488.88" stroke="rgba(81, 237, 194, 0.15)" stroke-width="1.5"></path><path d="M204.79 488.89L339.55 377.87" stroke="rgba(81, 237, 194, 0.15)" stroke-width="1.5"></path><path d="M204.79 488.89L189.29 675.97" stroke="rgba(81, 237, 194, 0.15)" stroke-width="1.5"></path><path d="M204.79 488.89L407.2 527.85" stroke="rgba(81, 237, 194, 0.15)" stroke-width="1.5"></path><path d="M189.29 675.97L189.29 675.97" stroke="rgba(81, 237, 194, 0.15)" stroke-width="1.5"></path><path d="M189.29 675.97L390.01 709.93" stroke="rgba(81, 237, 194, 0.15)" stroke-width="1.5"></path><path d="M189.29 675.97L39.04 488.88" stroke="rgba(81, 237, 194, 0.15)" stroke-width="1.5"></path><path d="M339.55 377.87L339.55 377.87" stroke="rgba(81, 237, 194, 0.15)" stroke-width="1.5"></path><path d="M339.55 377.87L407.2 527.85" stroke="rgba(81, 237, 194, 0.15)" stroke-width="1.5"></path><path d="M339.55 377.87L507.89 381.54" stroke="rgba(81, 237, 194, 0.15)" stroke-width="1.5"></path><path d="M407.2 527.85L407.2 527.85" stroke="rgba(81, 237, 194, 0.15)" stroke-width="1.5"></path><path d="M407.2 527.85L513.71 514.43" stroke="rgba(81, 237, 194, 0.15)" stroke-width="1.5"></path><path d="M390.01 709.93L390.01 709.93" stroke="rgba(81, 237, 194, 0.15)" stroke-width="1.5"></path><path d="M390.01 709.93L536.88 639.54" stroke="rgba(81, 237, 194, 0.15)" stroke-width="1.5"></path><path d="M390.01 709.93L407.2 527.85" stroke="rgba(81, 237, 194, 0.15)" stroke-width="1.5"></path><path d="M507.89 381.54L507.89 381.54" stroke="rgba(81, 237, 194, 0.15)" stroke-width="1.5"></path><path d="M507.89 381.54L513.71 514.43" stroke="rgba(81, 237, 194, 0.15)" stroke-width="1.5"></path><path d="M513.71 514.43L513.71 514.43" stroke="rgba(81, 237, 194, 0.15)" stroke-width="1.5"></path><path d="M513.71 514.43L536.88 639.54" stroke="rgba(81, 237, 194, 0.15)" stroke-width="1.5"></path><path d="M513.71 514.43L666.6 538.6" stroke="rgba(81, 237, 194, 0.15)" stroke-width="1.5"></path><path d="M513.71 514.43L686.39 401.25" stroke="rgba(81, 237, 194, 0.15)" stroke-width="1.5"></path><path d="M513.71 514.43L339.55 377.87" stroke="rgba(81, 237, 194, 0.15)" stroke-width="1.5"></path><path d="M536.88 639.54L536.88 639.54" stroke="rgba(81, 237, 194, 0.15)" stroke-width="1.5"></path><path d="M536.88 639.54L666.6 538.6" stroke="rgba(81, 237, 194, 0.15)" stroke-width="1.5"></path><path d="M664.55 216.32L664.55 216.32" stroke="rgba(81, 237, 194, 0.15)" stroke-width="1.5"></path><path d="M664.55 216.32L832.79 231.02" stroke="rgba(81, 237, 194, 0.15)" stroke-width="1.5"></path><path d="M664.55 216.32L686.39 401.25" stroke="rgba(81, 237, 194, 0.15)" stroke-width="1.5"></path><path d="M664.55 216.32L836.38 99.55" stroke="rgba(81, 237, 194, 0.15)" stroke-width="1.5"></path><path d="M664.55 216.32L507.89 381.54" stroke="rgba(81, 237, 194, 0.15)" stroke-width="1.5"></path><path d="M686.39 401.25L686.39 401.25" stroke="rgba(81, 237, 194, 0.15)" stroke-width="1.5"></path><path d="M686.39 401.25L666.6 538.6" stroke="rgba(81, 237, 194, 0.15)" stroke-width="1.5"></path><path d="M686.39 401.25L837.97 406.84" stroke="rgba(81, 237, 194, 0.15)" stroke-width="1.5"></path><path d="M686.39 401.25L507.89 381.54" stroke="rgba(81, 237, 194, 0.15)" stroke-width="1.5"></path><path d="M666.6 538.6L666.6 538.6" stroke="rgba(81, 237, 194, 0.15)" stroke-width="1.5"></path><path d="M707.28 685L707.28 685" stroke="rgba(81, 237, 194, 0.15)" stroke-width="1.5"></path><path d="M707.28 685L666.6 538.6" stroke="rgba(81, 237, 194, 0.15)" stroke-width="1.5"></path><path d="M707.28 685L858.01 661.68" stroke="rgba(81, 237, 194, 0.15)" stroke-width="1.5"></path><path d="M707.28 685L536.88 639.54" stroke="rgba(81, 237, 194, 0.15)" stroke-width="1.5"></path><path d="M707.28 685L855.92 516.85" stroke="rgba(81, 237, 194, 0.15)" stroke-width="1.5"></path><path d="M836.38 99.55L836.38 99.55" stroke="rgba(81, 237, 194, 0.15)" stroke-width="1.5"></path><path d="M836.38 99.55L832.79 231.02" stroke="rgba(81, 237, 194, 0.15)" stroke-width="1.5"></path><path d="M836.38 99.55L983.54 106.31" stroke="rgba(81, 237, 194, 0.15)" stroke-width="1.5"></path><path d="M836.38 99.55L942.83 247.86" stroke="rgba(81, 237, 194, 0.15)" stroke-width="1.5"></path><path d="M832.79 231.02L832.79 231.02" stroke="rgba(81, 237, 194, 0.15)" stroke-width="1.5"></path><path d="M832.79 231.02L942.83 247.86" stroke="rgba(81, 237, 194, 0.15)" stroke-width="1.5"></path><path d="M832.79 231.02L837.97 406.84" stroke="rgba(81, 237, 194, 0.15)" stroke-width="1.5"></path><path d="M832.79 231.02L983.54 106.31" stroke="rgba(81, 237, 194, 0.15)" stroke-width="1.5"></path><path d="M832.79 231.02L975.04 382.53" stroke="rgba(81, 237, 194, 0.15)" stroke-width="1.5"></path><path d="M837.97 406.84L837.97 406.84" stroke="rgba(81, 237, 194, 0.15)" stroke-width="1.5"></path><path d="M837.97 406.84L855.92 516.85" stroke="rgba(81, 237, 194, 0.15)" stroke-width="1.5"></path><path d="M837.97 406.84L975.04 382.53" stroke="rgba(81, 237, 194, 0.15)" stroke-width="1.5"></path><path d="M855.92 516.85L855.92 516.85" stroke="rgba(81, 237, 194, 0.15)" stroke-width="1.5"></path><path d="M855.92 516.85L945.5 537.73" stroke="rgba(81, 237, 194, 0.15)" stroke-width="1.5"></path><path d="M855.92 516.85L858.01 661.68" stroke="rgba(81, 237, 194, 0.15)" stroke-width="1.5"></path><path d="M855.92 516.85L975.04 382.53" stroke="rgba(81, 237, 194, 0.15)" stroke-width="1.5"></path><path d="M855.92 516.85L666.6 538.6" stroke="rgba(81, 237, 194, 0.15)" stroke-width="1.5"></path><path d="M858.01 661.68L858.01 661.68" stroke="rgba(81, 237, 194, 0.15)" stroke-width="1.5"></path><path d="M858.01 661.68L1001.16 706.28" stroke="rgba(81, 237, 194, 0.15)" stroke-width="1.5"></path><path d="M858.01 661.68L945.5 537.73" stroke="rgba(81, 237, 194, 0.15)" stroke-width="1.5"></path><path d="M858.01 661.68L666.6 538.6" stroke="rgba(81, 237, 194, 0.15)" stroke-width="1.5"></path><path d="M858.01 661.68L1105.92 658.26" stroke="rgba(81, 237, 194, 0.15)" stroke-width="1.5"></path><path d="M977.98 -77.1L977.98 -77.1" stroke="rgba(81, 237, 194, 0.15)" stroke-width="1.5"></path><path d="M977.98 -77.1L1105.74 -75.32" stroke="rgba(81, 237, 194, 0.15)" stroke-width="1.5"></path><path d="M977.98 -77.1L983.54 106.31" stroke="rgba(81, 237, 194, 0.15)" stroke-width="1.5"></path><path d="M977.98 -77.1L1152.21 55.23" stroke="rgba(81, 237, 194, 0.15)" stroke-width="1.5"></path><path d="M977.98 -77.1L836.38 99.55" stroke="rgba(81, 237, 194, 0.15)" stroke-width="1.5"></path><path d="M977.98 -77.1L942.83 247.86" stroke="rgba(81, 237, 194, 0.15)" stroke-width="1.5"></path><path d="M983.54 106.31L983.54 106.31" stroke="rgba(81, 237, 194, 0.15)" stroke-width="1.5"></path><path d="M983.54 106.31L942.83 247.86" stroke="rgba(81, 237, 194, 0.15)" stroke-width="1.5"></path><path d="M942.83 247.86L942.83 247.86" stroke="rgba(81, 237, 194, 0.15)" stroke-width="1.5"></path><path d="M942.83 247.86L975.04 382.53" stroke="rgba(81, 237, 194, 0.15)" stroke-width="1.5"></path><path d="M942.83 247.86L1117.62 258.52" stroke="rgba(81, 237, 194, 0.15)" stroke-width="1.5"></path><path d="M975.04 382.53L975.04 382.53" stroke="rgba(81, 237, 194, 0.15)" stroke-width="1.5"></path><path d="M945.5 537.73L945.5 537.73" stroke="rgba(81, 237, 194, 0.15)" stroke-width="1.5"></path><path d="M945.5 537.73L975.04 382.53" stroke="rgba(81, 237, 194, 0.15)" stroke-width="1.5"></path><path d="M1001.16 706.28L1001.16 706.28" stroke="rgba(81, 237, 194, 0.15)" stroke-width="1.5"></path><path d="M1001.16 706.28L1105.92 658.26" stroke="rgba(81, 237, 194, 0.15)" stroke-width="1.5"></path><path d="M1105.74 -75.32L1105.74 -75.32" stroke="rgba(81, 237, 194, 0.15)" stroke-width="1.5"></path><path d="M1105.74 -75.32L1152.21 55.23" stroke="rgba(81, 237, 194, 0.15)" stroke-width="1.5"></path><path d="M1105.74 -75.32L1308.26 -41.11" stroke="rgba(81, 237, 194, 0.15)" stroke-width="1.5"></path><path d="M1152.21 55.23L1152.21 55.23" stroke="rgba(81, 237, 194, 0.15)" stroke-width="1.5"></path><path d="M1152.21 55.23L1298.17 48" stroke="rgba(81, 237, 194, 0.15)" stroke-width="1.5"></path><path d="M1152.21 55.23L983.54 106.31" stroke="rgba(81, 237, 194, 0.15)" stroke-width="1.5"></path><path d="M1152.21 55.23L1308.26 -41.11" stroke="rgba(81, 237, 194, 0.15)" stroke-width="1.5"></path><path d="M1152.21 55.23L1117.62 258.52" stroke="rgba(81, 237, 194, 0.15)" stroke-width="1.5"></path><path d="M1117.62 258.52L1117.62 258.52" stroke="rgba(81, 237, 194, 0.15)" stroke-width="1.5"></path><path d="M1117.62 258.52L1158.1 347.43" stroke="rgba(81, 237, 194, 0.15)" stroke-width="1.5"></path><path d="M1158.1 347.43L1158.1 347.43" stroke="rgba(81, 237, 194, 0.15)" stroke-width="1.5"></path><path d="M1158.1 347.43L1282.12 347.31" stroke="rgba(81, 237, 194, 0.15)" stroke-width="1.5"></path><path d="M1158.1 347.43L1143.05 519.01" stroke="rgba(81, 237, 194, 0.15)" stroke-width="1.5"></path><path d="M1143.05 519.01L1143.05 519.01" stroke="rgba(81, 237, 194, 0.15)" stroke-width="1.5"></path><path d="M1143.05 519.01L1105.92 658.26" stroke="rgba(81, 237, 194, 0.15)" stroke-width="1.5"></path><path d="M1143.05 519.01L1303.41 501.87" stroke="rgba(81, 237, 194, 0.15)" stroke-width="1.5"></path><path d="M1105.92 658.26L1105.92 658.26" stroke="rgba(81, 237, 194, 0.15)" stroke-width="1.5"></path><path d="M1105.92 658.26L945.5 537.73" stroke="rgba(81, 237, 194, 0.15)" stroke-width="1.5"></path><path d="M1308.26 -41.11L1308.26 -41.11" stroke="rgba(81, 237, 194, 0.15)" stroke-width="1.5"></path><path d="M1308.26 -41.11L1298.17 48" stroke="rgba(81, 237, 194, 0.15)" stroke-width="1.5"></path><path d="M1308.26 -41.11L1421.3 -89.83" stroke="rgba(81, 237, 194, 0.15)" stroke-width="1.5"></path><path d="M1308.26 -41.11L1458.08 62.21" stroke="rgba(81, 237, 194, 0.15)" stroke-width="1.5"></path><path d="M1308.26 -41.11L1401.89 212.29" stroke="rgba(81, 237, 194, 0.15)" stroke-width="1.5"></path><path d="M1298.17 48L1298.17 48" stroke="rgba(81, 237, 194, 0.15)" stroke-width="1.5"></path><path d="M1298.17 48L1458.08 62.21" stroke="rgba(81, 237, 194, 0.15)" stroke-width="1.5"></path><path d="M1298.17 48L1421.3 -89.83" stroke="rgba(81, 237, 194, 0.15)" stroke-width="1.5"></path><path d="M1298.17 48L1401.89 212.29" stroke="rgba(81, 237, 194, 0.15)" stroke-width="1.5"></path><path d="M1298.17 48L1105.74 -75.32" stroke="rgba(81, 237, 194, 0.15)" stroke-width="1.5"></path><path d="M1282.12 347.31L1282.12 347.31" stroke="rgba(81, 237, 194, 0.15)" stroke-width="1.5"></path><path d="M1282.12 347.31L1408.03 390.74" stroke="rgba(81, 237, 194, 0.15)" stroke-width="1.5"></path><path d="M1303.41 501.87L1303.41 501.87" stroke="rgba(81, 237, 194, 0.15)" stroke-width="1.5"></path><path d="M1303.41 501.87L1410.81 489.33" stroke="rgba(81, 237, 194, 0.15)" stroke-width="1.5"></path><path d="M1303.41 501.87L1408.03 390.74" stroke="rgba(81, 237, 194, 0.15)" stroke-width="1.5"></path><path d="M1310.39 682.34L1310.39 682.34" stroke="rgba(81, 237, 194, 0.15)" stroke-width="1.5"></path><path d="M1310.39 682.34L1425.18 651.11" stroke="rgba(81, 237, 194, 0.15)" stroke-width="1.5"></path><path d="M1310.39 682.34L1303.41 501.87" stroke="rgba(81, 237, 194, 0.15)" stroke-width="1.5"></path><path d="M1310.39 682.34L1105.92 658.26" stroke="rgba(81, 237, 194, 0.15)" stroke-width="1.5"></path><path d="M1310.39 682.34L1410.81 489.33" stroke="rgba(81, 237, 194, 0.15)" stroke-width="1.5"></path><path d="M1310.39 682.34L1143.05 519.01" stroke="rgba(81, 237, 194, 0.15)" stroke-width="1.5"></path><path d="M1421.3 -89.83L1421.3 -89.83" stroke="rgba(81, 237, 194, 0.15)" stroke-width="1.5"></path><path d="M1421.3 -89.83L1458.08 62.21" stroke="rgba(81, 237, 194, 0.15)" stroke-width="1.5"></path><path d="M1421.3 -89.83L1603.79 -53.88" stroke="rgba(81, 237, 194, 0.15)" stroke-width="1.5"></path><path d="M1458.08 62.21L1458.08 62.21" stroke="rgba(81, 237, 194, 0.15)" stroke-width="1.5"></path><path d="M1458.08 62.21L1566.28 93" stroke="rgba(81, 237, 194, 0.15)" stroke-width="1.5"></path><path d="M1458.08 62.21L1401.89 212.29" stroke="rgba(81, 237, 194, 0.15)" stroke-width="1.5"></path><path d="M1458.08 62.21L1579.44 194.7" stroke="rgba(81, 237, 194, 0.15)" stroke-width="1.5"></path><path d="M1401.89 212.29L1401.89 212.29" stroke="rgba(81, 237, 194, 0.15)" stroke-width="1.5"></path><path d="M1401.89 212.29L1579.44 194.7" stroke="rgba(81, 237, 194, 0.15)" stroke-width="1.5"></path><path d="M1401.89 212.29L1408.03 390.74" stroke="rgba(81, 237, 194, 0.15)" stroke-width="1.5"></path><path d="M1401.89 212.29L1282.12 347.31" stroke="rgba(81, 237, 194, 0.15)" stroke-width="1.5"></path><path d="M1401.89 212.29L1566.28 93" stroke="rgba(81, 237, 194, 0.15)" stroke-width="1.5"></path><path d="M1408.03 390.74L1408.03 390.74" stroke="rgba(81, 237, 194, 0.15)" stroke-width="1.5"></path><path d="M1408.03 390.74L1410.81 489.33" stroke="rgba(81, 237, 194, 0.15)" stroke-width="1.5"></path><path d="M1408.03 390.74L1575.64 369.59" stroke="rgba(81, 237, 194, 0.15)" stroke-width="1.5"></path><path d="M1410.81 489.33L1410.81 489.33" stroke="rgba(81, 237, 194, 0.15)" stroke-width="1.5"></path><path d="M1425.18 651.11L1425.18 651.11" stroke="rgba(81, 237, 194, 0.15)" stroke-width="1.5"></path><path d="M1603.79 -53.88L1603.79 -53.88" stroke="rgba(81, 237, 194, 0.15)" stroke-width="1.5"></path><path d="M1603.79 -53.88L1566.28 93" stroke="rgba(81, 237, 194, 0.15)" stroke-width="1.5"></path><path d="M1603.79 -53.88L1458.08 62.21" stroke="rgba(81, 237, 194, 0.15)" stroke-width="1.5"></path><path d="M1603.79 -53.88L1579.44 194.7" stroke="rgba(81, 237, 194, 0.15)" stroke-width="1.5"></path><path d="M1566.28 93L1566.28 93" stroke="rgba(81, 237, 194, 0.15)" stroke-width="1.5"></path><path d="M1566.28 93L1579.44 194.7" stroke="rgba(81, 237, 194, 0.15)" stroke-width="1.5"></path><path d="M1566.28 93L1421.3 -89.83" stroke="rgba(81, 237, 194, 0.15)" stroke-width="1.5"></path><path d="M1566.28 93L1298.17 48" stroke="rgba(81, 237, 194, 0.15)" stroke-width="1.5"></path><path d="M1579.44 194.7L1579.44 194.7" stroke="rgba(81, 237, 194, 0.15)" stroke-width="1.5"></path><path d="M1579.44 194.7L1575.64 369.59" stroke="rgba(81, 237, 194, 0.15)" stroke-width="1.5"></path><path d="M1575.64 369.59L1575.64 369.59" stroke="rgba(81, 237, 194, 0.15)" stroke-width="1.5"></path><path d="M1575.64 369.59L1574.06 523.63" stroke="rgba(81, 237, 194, 0.15)" stroke-width="1.5"></path><path d="M1574.06 523.63L1574.06 523.63" stroke="rgba(81, 237, 194, 0.15)" stroke-width="1.5"></path><path d="M1574.06 523.63L1410.81 489.33" stroke="rgba(81, 237, 194, 0.15)" stroke-width="1.5"></path><path d="M1574.06 523.63L1425.18 651.11" stroke="rgba(81, 237, 194, 0.15)" stroke-width="1.5"></path><path d="M1574.06 523.63L1408.03 390.74" stroke="rgba(81, 237, 194, 0.15)" stroke-width="1.5"></path><path d="M1574.06 523.63L1303.41 501.87" stroke="rgba(81, 237, 194, 0.15)" stroke-width="1.5"></path><path d="M1574.06 523.63L1310.39 682.34" stroke="rgba(81, 237, 194, 0.15)" stroke-width="1.5"></path><circle r="5" cx="-85.33" cy="410.27" fill="rgba(81, 237, 194, 0.15)"></circle><circle r="5" cx="-104.48" cy="515.9" fill="rgba(81, 237, 194, 0.15)"></circle><circle r="5" cx="-51.85" cy="666.94" fill="rgba(81, 237, 194, 0.15)"></circle><circle r="5" cx="99.04" cy="352.06" fill="rgba(81, 237, 194, 0.15)"></circle><circle r="5" cx="39.04" cy="488.88" fill="rgba(81, 237, 194, 0.15)"></circle><circle r="5" cx="37.65" cy="645.28" fill="rgba(81, 237, 194, 0.15)"></circle><circle r="5" cx="216.73" cy="399.49" fill="rgba(81, 237, 194, 0.15)"></circle><circle r="5" cx="204.79" cy="488.89" fill="rgba(81, 237, 194, 0.15)"></circle><circle r="5" cx="189.29" cy="675.97" fill="rgba(81, 237, 194, 0.15)"></circle><circle r="5" cx="339.55" cy="377.87" fill="rgba(81, 237, 194, 0.15)"></circle><circle r="5" cx="407.2" cy="527.85" fill="rgba(81, 237, 194, 0.15)"></circle><circle r="5" cx="390.01" cy="709.93" fill="rgba(81, 237, 194, 0.15)"></circle><circle r="5" cx="507.89" cy="381.54" fill="rgba(81, 237, 194, 0.15)"></circle><circle r="5" cx="513.71" cy="514.43" fill="rgba(81, 237, 194, 0.15)"></circle><circle r="5" cx="536.88" cy="639.54" fill="rgba(81, 237, 194, 0.15)"></circle><circle r="5" cx="664.55" cy="216.32" fill="rgba(81, 237, 194, 0.15)"></circle><circle r="5" cx="686.39" cy="401.25" fill="rgba(81, 237, 194, 0.15)"></circle><circle r="5" cx="666.6" cy="538.6" fill="rgba(81, 237, 194, 0.15)"></circle><circle r="5" cx="707.28" cy="685" fill="rgba(81, 237, 194, 0.15)"></circle><circle r="5" cx="836.38" cy="99.55" fill="rgba(81, 237, 194, 0.15)"></circle><circle r="5" cx="832.79" cy="231.02" fill="rgba(81, 237, 194, 0.15)"></circle><circle r="5" cx="837.97" cy="406.84" fill="rgba(81, 237, 194, 0.15)"></circle><circle r="5" cx="855.92" cy="516.85" fill="rgba(81, 237, 194, 0.15)"></circle><circle r="5" cx="858.01" cy="661.68" fill="rgba(81, 237, 194, 0.15)"></circle><circle r="5" cx="977.98" cy="-77.1" fill="rgba(81, 237, 194, 0.15)"></circle><circle r="5" cx="983.54" cy="106.31" fill="rgba(81, 237, 194, 0.15)"></circle><circle r="5" cx="942.83" cy="247.86" fill="rgba(81, 237, 194, 0.15)"></circle><circle r="5" cx="975.04" cy="382.53" fill="rgba(81, 237, 194, 0.15)"></circle><circle r="5" cx="945.5" cy="537.73" fill="rgba(81, 237, 194, 0.15)"></circle><circle r="5" cx="1001.16" cy="706.28" fill="rgba(81, 237, 194, 0.15)"></circle><circle r="5" cx="1105.74" cy="-75.32" fill="rgba(81, 237, 194, 0.15)"></circle><circle r="5" cx="1152.21" cy="55.23" fill="rgba(81, 237, 194, 0.15)"></circle><circle r="5" cx="1117.62" cy="258.52" fill="rgba(81, 237, 194, 0.15)"></circle><circle r="5" cx="1158.1" cy="347.43" fill="rgba(81, 237, 194, 0.15)"></circle><circle r="5" cx="1143.05" cy="519.01" fill="rgba(81, 237, 194, 0.15)"></circle><circle r="5" cx="1105.92" cy="658.26" fill="rgba(81, 237, 194, 0.15)"></circle><circle r="5" cx="1308.26" cy="-41.11" fill="rgba(81, 237, 194, 0.15)"></circle><circle r="5" cx="1298.17" cy="48" fill="rgba(81, 237, 194, 0.15)"></circle><circle r="5" cx="1282.12" cy="347.31" fill="rgba(81, 237, 194, 0.15)"></circle><circle r="5" cx="1303.41" cy="501.87" fill="rgba(81, 237, 194, 0.15)"></circle><circle r="5" cx="1310.39" cy="682.34" fill="rgba(81, 237, 194, 0.15)"></circle><circle r="5" cx="1421.3" cy="-89.83" fill="rgba(81, 237, 194, 0.15)"></circle><circle r="5" cx="1458.08" cy="62.21" fill="rgba(81, 237, 194, 0.15)"></circle><circle r="5" cx="1401.89" cy="212.29" fill="rgba(81, 237, 194, 0.15)"></circle><circle r="5" cx="1408.03" cy="390.74" fill="rgba(81, 237, 194, 0.15)"></circle><circle r="5" cx="1410.81" cy="489.33" fill="rgba(81, 237, 194, 0.15)"></circle><circle r="5" cx="1425.18" cy="651.11" fill="rgba(81, 237, 194, 0.15)"></circle><circle r="5" cx="1603.79" cy="-53.88" fill="rgba(81, 237, 194, 0.15)"></circle><circle r="5" cx="1566.28" cy="93" fill="rgba(81, 237, 194, 0.15)"></circle><circle r="5" cx="1579.44" cy="194.7" fill="rgba(81, 237, 194, 0.15)"></circle><circle r="5" cx="1575.64" cy="369.59" fill="rgba(81, 237, 194, 0.15)"></circle><circle r="5" cx="1574.06" cy="523.63" fill="rgba(81, 237, 194, 0.15)"></circle><path d="M102.89 643.37L102.89 643.37" stroke="hsla(163.79999999999995, 100%, 65%, 0.16)" stroke-width="1.5"></path><path d="M102.89 643.37L230.97 681.51" stroke="hsla(163.79999999999995, 100%, 65%, 0.16)" stroke-width="1.5"></path><path d="M102.89 643.37L69.26 490.19" stroke="hsla(163.79999999999995, 100%, 65%, 0.16)" stroke-width="1.5"></path><path d="M102.89 643.37L-60.93 706.68" stroke="hsla(163.79999999999995, 100%, 65%, 0.16)" stroke-width="1.5"></path><path d="M102.89 643.37L261.26 494.95" stroke="hsla(163.79999999999995, 100%, 65%, 0.16)" stroke-width="1.5"></path><path d="M102.89 643.37L-105.78 496.07" stroke="hsla(163.79999999999995, 100%, 65%, 0.16)" stroke-width="1.5"></path><path d="M698.84 558L698.84 558" stroke="hsla(163.79999999999995, 100%, 65%, 0.16)" stroke-width="1.5"></path><path d="M698.84 558L801.24 531.66" stroke="hsla(163.79999999999995, 100%, 65%, 0.16)" stroke-width="1.5"></path><path d="M1436.18 -104.7L1436.18 -104.7" stroke="hsla(163.79999999999995, 100%, 65%, 0.16)" stroke-width="1.5"></path><path d="M1436.18 -104.7L1571.74 -97.21" stroke="hsla(163.79999999999995, 100%, 65%, 0.16)" stroke-width="1.5"></path><path d="M1436.18 -104.7L1560.57 38.34" stroke="hsla(163.79999999999995, 100%, 65%, 0.16)" stroke-width="1.5"></path><path d="M1436.18 -104.7L1242.39 -75" stroke="hsla(163.79999999999995, 100%, 65%, 0.16)" stroke-width="1.5"></path><path d="M1410.15 531.83L1410.15 531.83" stroke="hsla(163.79999999999995, 100%, 65%, 0.16)" stroke-width="1.5"></path><path d="M1410.15 531.83L1295.64 547.19" stroke="hsla(163.79999999999995, 100%, 65%, 0.16)" stroke-width="1.5"></path><path d="M1410.15 531.83L1453.17 641.91" stroke="hsla(163.79999999999995, 100%, 65%, 0.16)" stroke-width="1.5"></path><path d="M1410.15 531.83L1400.33 404.27" stroke="hsla(163.79999999999995, 100%, 65%, 0.16)" stroke-width="1.5"></path><path d="M1410.15 531.83L1309.2 650.6" stroke="hsla(163.79999999999995, 100%, 65%, 0.16)" stroke-width="1.5"></path><path d="M1571.74 -97.21L1571.74 -97.21" stroke="hsla(163.79999999999995, 100%, 65%, 0.16)" stroke-width="1.5"></path><path d="M1571.74 -97.21L1560.57 38.34" stroke="hsla(163.79999999999995, 100%, 65%, 0.16)" stroke-width="1.5"></path><path d="M1571.74 -97.21L1462.5 104.73" stroke="hsla(163.79999999999995, 100%, 65%, 0.16)" stroke-width="1.5"></path><path d="M1571.74 -97.21L1242.39 -75" stroke="hsla(163.79999999999995, 100%, 65%, 0.16)" stroke-width="1.5"></path><path d="M1571.74 -97.21L1552.05 241.47" stroke="hsla(163.79999999999995, 100%, 65%, 0.16)" stroke-width="1.5"></path><path d="M1571.74 -97.21L1388.59 262.12" stroke="hsla(163.79999999999995, 100%, 65%, 0.16)" stroke-width="1.5"></path><path d="M-105.78 496.07L-105.78 496.07" stroke="hsla(163.79999999999995, 100%, 65%, 0.16)" stroke-width="1.5"></path><path d="M-105.78 496.07L69.26 490.19" stroke="hsla(163.79999999999995, 100%, 65%, 0.16)" stroke-width="1.5"></path><path d="M-105.78 496.07L-60.93 706.68" stroke="hsla(163.79999999999995, 100%, 65%, 0.16)" stroke-width="1.5"></path><path d="M-105.78 496.07L261.26 494.95" stroke="hsla(163.79999999999995, 100%, 65%, 0.16)" stroke-width="1.5"></path><path d="M-60.93 706.68L-60.93 706.68" stroke="hsla(163.79999999999995, 100%, 65%, 0.16)" stroke-width="1.5"></path><path d="M-60.93 706.68L69.26 490.19" stroke="hsla(163.79999999999995, 100%, 65%, 0.16)" stroke-width="1.5"></path><path d="M-60.93 706.68L230.97 681.51" stroke="hsla(163.79999999999995, 100%, 65%, 0.16)" stroke-width="1.5"></path><path d="M-60.93 706.68L261.26 494.95" stroke="hsla(163.79999999999995, 100%, 65%, 0.16)" stroke-width="1.5"></path><path d="M69.26 490.19L69.26 490.19" stroke="hsla(163.79999999999995, 100%, 65%, 0.16)" stroke-width="1.5"></path><path d="M69.26 490.19L261.26 494.95" stroke="hsla(163.79999999999995, 100%, 65%, 0.16)" stroke-width="1.5"></path><path d="M69.26 490.19L230.97 681.51" stroke="hsla(163.79999999999995, 100%, 65%, 0.16)" stroke-width="1.5"></path><path d="M261.26 494.95L261.26 494.95" stroke="hsla(163.79999999999995, 100%, 65%, 0.16)" stroke-width="1.5"></path><path d="M261.26 494.95L395.42 493.67" stroke="hsla(163.79999999999995, 100%, 65%, 0.16)" stroke-width="1.5"></path><path d="M261.26 494.95L230.97 681.51" stroke="hsla(163.79999999999995, 100%, 65%, 0.16)" stroke-width="1.5"></path><path d="M261.26 494.95L364.87 660.44" stroke="hsla(163.79999999999995, 100%, 65%, 0.16)" stroke-width="1.5"></path><path d="M261.26 494.95L489.75 545.25" stroke="hsla(163.79999999999995, 100%, 65%, 0.16)" stroke-width="1.5"></path><path d="M230.97 681.51L230.97 681.51" stroke="hsla(163.79999999999995, 100%, 65%, 0.16)" stroke-width="1.5"></path><path d="M230.97 681.51L364.87 660.44" stroke="hsla(163.79999999999995, 100%, 65%, 0.16)" stroke-width="1.5"></path><path d="M230.97 681.51L395.42 493.67" stroke="hsla(163.79999999999995, 100%, 65%, 0.16)" stroke-width="1.5"></path><path d="M230.97 681.51L489.75 545.25" stroke="hsla(163.79999999999995, 100%, 65%, 0.16)" stroke-width="1.5"></path><path d="M395.42 493.67L395.42 493.67" stroke="hsla(163.79999999999995, 100%, 65%, 0.16)" stroke-width="1.5"></path><path d="M395.42 493.67L489.75 545.25" stroke="hsla(163.79999999999995, 100%, 65%, 0.16)" stroke-width="1.5"></path><path d="M395.42 493.67L364.87 660.44" stroke="hsla(163.79999999999995, 100%, 65%, 0.16)" stroke-width="1.5"></path><path d="M395.42 493.67L533.97 702.21" stroke="hsla(163.79999999999995, 100%, 65%, 0.16)" stroke-width="1.5"></path><path d="M364.87 660.44L364.87 660.44" stroke="hsla(163.79999999999995, 100%, 65%, 0.16)" stroke-width="1.5"></path><path d="M489.75 545.25L489.75 545.25" stroke="hsla(163.79999999999995, 100%, 65%, 0.16)" stroke-width="1.5"></path><path d="M489.75 545.25L533.97 702.21" stroke="hsla(163.79999999999995, 100%, 65%, 0.16)" stroke-width="1.5"></path><path d="M489.75 545.25L364.87 660.44" stroke="hsla(163.79999999999995, 100%, 65%, 0.16)" stroke-width="1.5"></path><path d="M533.97 702.21L533.97 702.21" stroke="hsla(163.79999999999995, 100%, 65%, 0.16)" stroke-width="1.5"></path><path d="M533.97 702.21L364.87 660.44" stroke="hsla(163.79999999999995, 100%, 65%, 0.16)" stroke-width="1.5"></path><path d="M533.97 702.21L698.84 558" stroke="hsla(163.79999999999995, 100%, 65%, 0.16)" stroke-width="1.5"></path><path d="M834.69 351.49L834.69 351.49" stroke="hsla(163.79999999999995, 100%, 65%, 0.16)" stroke-width="1.5"></path><path d="M834.69 351.49L944.69 379" stroke="hsla(163.79999999999995, 100%, 65%, 0.16)" stroke-width="1.5"></path><path d="M834.69 351.49L801.24 531.66" stroke="hsla(163.79999999999995, 100%, 65%, 0.16)" stroke-width="1.5"></path><path d="M834.69 351.49L977.52 541.69" stroke="hsla(163.79999999999995, 100%, 65%, 0.16)" stroke-width="1.5"></path><path d="M834.69 351.49L698.84 558" stroke="hsla(163.79999999999995, 100%, 65%, 0.16)" stroke-width="1.5"></path><path d="M834.69 351.49L1122.02 384.17" stroke="hsla(163.79999999999995, 100%, 65%, 0.16)" stroke-width="1.5"></path><path d="M801.24 531.66L801.24 531.66" stroke="hsla(163.79999999999995, 100%, 65%, 0.16)" stroke-width="1.5"></path><path d="M801.24 531.66L809.28 668.86" stroke="hsla(163.79999999999995, 100%, 65%, 0.16)" stroke-width="1.5"></path><path d="M801.24 531.66L977.52 541.69" stroke="hsla(163.79999999999995, 100%, 65%, 0.16)" stroke-width="1.5"></path><path d="M809.28 668.86L809.28 668.86" stroke="hsla(163.79999999999995, 100%, 65%, 0.16)" stroke-width="1.5"></path><path d="M809.28 668.86L698.84 558" stroke="hsla(163.79999999999995, 100%, 65%, 0.16)" stroke-width="1.5"></path><path d="M809.28 668.86L1001.73 686.69" stroke="hsla(163.79999999999995, 100%, 65%, 0.16)" stroke-width="1.5"></path><path d="M809.28 668.86L977.52 541.69" stroke="hsla(163.79999999999995, 100%, 65%, 0.16)" stroke-width="1.5"></path><path d="M809.28 668.86L533.97 702.21" stroke="hsla(163.79999999999995, 100%, 65%, 0.16)" stroke-width="1.5"></path><path d="M809.28 668.86L834.69 351.49" stroke="hsla(163.79999999999995, 100%, 65%, 0.16)" stroke-width="1.5"></path><path d="M944.69 379L944.69 379" stroke="hsla(163.79999999999995, 100%, 65%, 0.16)" stroke-width="1.5"></path><path d="M944.69 379L977.52 541.69" stroke="hsla(163.79999999999995, 100%, 65%, 0.16)" stroke-width="1.5"></path><path d="M944.69 379L1122.02 384.17" stroke="hsla(163.79999999999995, 100%, 65%, 0.16)" stroke-width="1.5"></path><path d="M944.69 379L801.24 531.66" stroke="hsla(163.79999999999995, 100%, 65%, 0.16)" stroke-width="1.5"></path><path d="M977.52 541.69L977.52 541.69" stroke="hsla(163.79999999999995, 100%, 65%, 0.16)" stroke-width="1.5"></path><path d="M977.52 541.69L1001.73 686.69" stroke="hsla(163.79999999999995, 100%, 65%, 0.16)" stroke-width="1.5"></path><path d="M1001.73 686.69L1001.73 686.69" stroke="hsla(163.79999999999995, 100%, 65%, 0.16)" stroke-width="1.5"></path><path d="M1001.73 686.69L1149.46 692.86" stroke="hsla(163.79999999999995, 100%, 65%, 0.16)" stroke-width="1.5"></path><path d="M1001.73 686.69L801.24 531.66" stroke="hsla(163.79999999999995, 100%, 65%, 0.16)" stroke-width="1.5"></path><path d="M1001.73 686.69L1309.2 650.6" stroke="hsla(163.79999999999995, 100%, 65%, 0.16)" stroke-width="1.5"></path><path d="M1001.73 686.69L944.69 379" stroke="hsla(163.79999999999995, 100%, 65%, 0.16)" stroke-width="1.5"></path><path d="M1159.24 226.8L1159.24 226.8" stroke="hsla(163.79999999999995, 100%, 65%, 0.16)" stroke-width="1.5"></path><path d="M1159.24 226.8L1275.77 231.83" stroke="hsla(163.79999999999995, 100%, 65%, 0.16)" stroke-width="1.5"></path><path d="M1122.02 384.17L1122.02 384.17" stroke="hsla(163.79999999999995, 100%, 65%, 0.16)" stroke-width="1.5"></path><path d="M1122.02 384.17L1246.2 366.18" stroke="hsla(163.79999999999995, 100%, 65%, 0.16)" stroke-width="1.5"></path><path d="M1122.02 384.17L1159.24 226.8" stroke="hsla(163.79999999999995, 100%, 65%, 0.16)" stroke-width="1.5"></path><path d="M1122.02 384.17L977.52 541.69" stroke="hsla(163.79999999999995, 100%, 65%, 0.16)" stroke-width="1.5"></path><path d="M1122.02 384.17L1275.77 231.83" stroke="hsla(163.79999999999995, 100%, 65%, 0.16)" stroke-width="1.5"></path><path d="M1122.02 384.17L1295.64 547.19" stroke="hsla(163.79999999999995, 100%, 65%, 0.16)" stroke-width="1.5"></path><path d="M1149.46 692.86L1149.46 692.86" stroke="hsla(163.79999999999995, 100%, 65%, 0.16)" stroke-width="1.5"></path><path d="M1149.46 692.86L1309.2 650.6" stroke="hsla(163.79999999999995, 100%, 65%, 0.16)" stroke-width="1.5"></path><path d="M1149.46 692.86L1295.64 547.19" stroke="hsla(163.79999999999995, 100%, 65%, 0.16)" stroke-width="1.5"></path><path d="M1149.46 692.86L977.52 541.69" stroke="hsla(163.79999999999995, 100%, 65%, 0.16)" stroke-width="1.5"></path><path d="M1149.46 692.86L1410.15 531.83" stroke="hsla(163.79999999999995, 100%, 65%, 0.16)" stroke-width="1.5"></path><path d="M1242.39 -75L1242.39 -75" stroke="hsla(163.79999999999995, 100%, 65%, 0.16)" stroke-width="1.5"></path><path d="M1242.39 -75L1462.5 104.73" stroke="hsla(163.79999999999995, 100%, 65%, 0.16)" stroke-width="1.5"></path><path d="M1242.39 -75L1275.77 231.83" stroke="hsla(163.79999999999995, 100%, 65%, 0.16)" stroke-width="1.5"></path><path d="M1242.39 -75L1159.24 226.8" stroke="hsla(163.79999999999995, 100%, 65%, 0.16)" stroke-width="1.5"></path><path d="M1242.39 -75L1560.57 38.34" stroke="hsla(163.79999999999995, 100%, 65%, 0.16)" stroke-width="1.5"></path><path d="M1275.77 231.83L1275.77 231.83" stroke="hsla(163.79999999999995, 100%, 65%, 0.16)" stroke-width="1.5"></path><path d="M1275.77 231.83L1388.59 262.12" stroke="hsla(163.79999999999995, 100%, 65%, 0.16)" stroke-width="1.5"></path><path d="M1246.2 366.18L1246.2 366.18" stroke="hsla(163.79999999999995, 100%, 65%, 0.16)" stroke-width="1.5"></path><path d="M1246.2 366.18L1275.77 231.83" stroke="hsla(163.79999999999995, 100%, 65%, 0.16)" stroke-width="1.5"></path><path d="M1246.2 366.18L1400.33 404.27" stroke="hsla(163.79999999999995, 100%, 65%, 0.16)" stroke-width="1.5"></path><path d="M1246.2 366.18L1159.24 226.8" stroke="hsla(163.79999999999995, 100%, 65%, 0.16)" stroke-width="1.5"></path><path d="M1246.2 366.18L1388.59 262.12" stroke="hsla(163.79999999999995, 100%, 65%, 0.16)" stroke-width="1.5"></path><path d="M1246.2 366.18L1295.64 547.19" stroke="hsla(163.79999999999995, 100%, 65%, 0.16)" stroke-width="1.5"></path><path d="M1295.64 547.19L1295.64 547.19" stroke="hsla(163.79999999999995, 100%, 65%, 0.16)" stroke-width="1.5"></path><path d="M1295.64 547.19L1309.2 650.6" stroke="hsla(163.79999999999995, 100%, 65%, 0.16)" stroke-width="1.5"></path><path d="M1295.64 547.19L1400.33 404.27" stroke="hsla(163.79999999999995, 100%, 65%, 0.16)" stroke-width="1.5"></path><path d="M1295.64 547.19L1453.17 641.91" stroke="hsla(163.79999999999995, 100%, 65%, 0.16)" stroke-width="1.5"></path><path d="M1309.2 650.6L1309.2 650.6" stroke="hsla(163.79999999999995, 100%, 65%, 0.16)" stroke-width="1.5"></path><path d="M1309.2 650.6L1453.17 641.91" stroke="hsla(163.79999999999995, 100%, 65%, 0.16)" stroke-width="1.5"></path><path d="M1309.2 650.6L1548.18 665.48" stroke="hsla(163.79999999999995, 100%, 65%, 0.16)" stroke-width="1.5"></path><path d="M1309.2 650.6L1400.33 404.27" stroke="hsla(163.79999999999995, 100%, 65%, 0.16)" stroke-width="1.5"></path><path d="M1462.5 104.73L1462.5 104.73" stroke="hsla(163.79999999999995, 100%, 65%, 0.16)" stroke-width="1.5"></path><path d="M1462.5 104.73L1560.57 38.34" stroke="hsla(163.79999999999995, 100%, 65%, 0.16)" stroke-width="1.5"></path><path d="M1462.5 104.73L1552.05 241.47" stroke="hsla(163.79999999999995, 100%, 65%, 0.16)" stroke-width="1.5"></path><path d="M1462.5 104.73L1388.59 262.12" stroke="hsla(163.79999999999995, 100%, 65%, 0.16)" stroke-width="1.5"></path><path d="M1462.5 104.73L1436.18 -104.7" stroke="hsla(163.79999999999995, 100%, 65%, 0.16)" stroke-width="1.5"></path><path d="M1462.5 104.73L1275.77 231.83" stroke="hsla(163.79999999999995, 100%, 65%, 0.16)" stroke-width="1.5"></path><path d="M1388.59 262.12L1388.59 262.12" stroke="hsla(163.79999999999995, 100%, 65%, 0.16)" stroke-width="1.5"></path><path d="M1388.59 262.12L1400.33 404.27" stroke="hsla(163.79999999999995, 100%, 65%, 0.16)" stroke-width="1.5"></path><path d="M1388.59 262.12L1552.05 241.47" stroke="hsla(163.79999999999995, 100%, 65%, 0.16)" stroke-width="1.5"></path><path d="M1400.33 404.27L1400.33 404.27" stroke="hsla(163.79999999999995, 100%, 65%, 0.16)" stroke-width="1.5"></path><path d="M1453.17 641.91L1453.17 641.91" stroke="hsla(163.79999999999995, 100%, 65%, 0.16)" stroke-width="1.5"></path><path d="M1453.17 641.91L1548.18 665.48" stroke="hsla(163.79999999999995, 100%, 65%, 0.16)" stroke-width="1.5"></path><path d="M1453.17 641.91L1571.74 503.14" stroke="hsla(163.79999999999995, 100%, 65%, 0.16)" stroke-width="1.5"></path><path d="M1453.17 641.91L1400.33 404.27" stroke="hsla(163.79999999999995, 100%, 65%, 0.16)" stroke-width="1.5"></path><path d="M1560.57 38.34L1560.57 38.34" stroke="hsla(163.79999999999995, 100%, 65%, 0.16)" stroke-width="1.5"></path><path d="M1560.57 38.34L1552.05 241.47" stroke="hsla(163.79999999999995, 100%, 65%, 0.16)" stroke-width="1.5"></path><path d="M1560.57 38.34L1388.59 262.12" stroke="hsla(163.79999999999995, 100%, 65%, 0.16)" stroke-width="1.5"></path><path d="M1552.05 241.47L1552.05 241.47" stroke="hsla(163.79999999999995, 100%, 65%, 0.16)" stroke-width="1.5"></path><path d="M1552.05 241.47L1607.42 360.17" stroke="hsla(163.79999999999995, 100%, 65%, 0.16)" stroke-width="1.5"></path><path d="M1607.42 360.17L1607.42 360.17" stroke="hsla(163.79999999999995, 100%, 65%, 0.16)" stroke-width="1.5"></path><path d="M1607.42 360.17L1571.74 503.14" stroke="hsla(163.79999999999995, 100%, 65%, 0.16)" stroke-width="1.5"></path><path d="M1607.42 360.17L1400.33 404.27" stroke="hsla(163.79999999999995, 100%, 65%, 0.16)" stroke-width="1.5"></path><path d="M1571.74 503.14L1571.74 503.14" stroke="hsla(163.79999999999995, 100%, 65%, 0.16)" stroke-width="1.5"></path><path d="M1571.74 503.14L1548.18 665.48" stroke="hsla(163.79999999999995, 100%, 65%, 0.16)" stroke-width="1.5"></path><path d="M1548.18 665.48L1548.18 665.48" stroke="hsla(163.79999999999995, 100%, 65%, 0.16)" stroke-width="1.5"></path><path d="M1548.18 665.48L1410.15 531.83" stroke="hsla(163.79999999999995, 100%, 65%, 0.16)" stroke-width="1.5"></path><path d="M1548.18 665.48L1295.64 547.19" stroke="hsla(163.79999999999995, 100%, 65%, 0.16)" stroke-width="1.5"></path><circle r="25" cx="102.89" cy="643.37" fill="url(#SvgjsRadialGradient1017)"></circle><circle r="25" cx="698.84" cy="558" fill="url(#SvgjsRadialGradient1017)"></circle><circle r="25" cx="1436.18" cy="-104.7" fill="url(#SvgjsRadialGradient1017)"></circle><circle r="25" cx="1410.15" cy="531.83" fill="url(#SvgjsRadialGradient1017)"></circle><circle r="25" cx="1571.74" cy="-97.21" fill="url(#SvgjsRadialGradient1017)"></circle><circle r="5" cx="-105.78" cy="496.07" fill="rgba(235, 255, 250, 0.58)"></circle><circle r="5" cx="-60.93" cy="706.68" fill="rgba(235, 255, 250, 0.58)"></circle><circle r="5" cx="69.26" cy="490.19" fill="rgba(235, 255, 250, 0.58)"></circle><circle r="5" cx="261.26" cy="494.95" fill="rgba(235, 255, 250, 0.58)"></circle><circle r="5" cx="230.97" cy="681.51" fill="rgba(235, 255, 250, 0.58)"></circle><circle r="5" cx="395.42" cy="493.67" fill="rgba(235, 255, 250, 0.58)"></circle><circle r="5" cx="364.87" cy="660.44" fill="rgba(235, 255, 250, 0.58)"></circle><circle r="5" cx="489.75" cy="545.25" fill="rgba(235, 255, 250, 0.58)"></circle><circle r="5" cx="533.97" cy="702.21" fill="rgba(235, 255, 250, 0.58)"></circle><circle r="5" cx="834.69" cy="351.49" fill="rgba(235, 255, 250, 0.58)"></circle><circle r="5" cx="801.24" cy="531.66" fill="rgba(235, 255, 250, 0.58)"></circle><circle r="5" cx="809.28" cy="668.86" fill="rgba(235, 255, 250, 0.58)"></circle><circle r="5" cx="944.69" cy="379" fill="rgba(235, 255, 250, 0.58)"></circle><circle r="5" cx="977.52" cy="541.69" fill="rgba(235, 255, 250, 0.58)"></circle><circle r="5" cx="1001.73" cy="686.69" fill="rgba(235, 255, 250, 0.58)"></circle><circle r="5" cx="1159.24" cy="226.8" fill="rgba(235, 255, 250, 0.58)"></circle><circle r="5" cx="1122.02" cy="384.17" fill="rgba(235, 255, 250, 0.58)"></circle><circle r="5" cx="1149.46" cy="692.86" fill="rgba(235, 255, 250, 0.58)"></circle><circle r="5" cx="1242.39" cy="-75" fill="rgba(235, 255, 250, 0.58)"></circle><circle r="5" cx="1275.77" cy="231.83" fill="rgba(235, 255, 250, 0.58)"></circle><circle r="5" cx="1246.2" cy="366.18" fill="rgba(235, 255, 250, 0.58)"></circle><circle r="5" cx="1295.64" cy="547.19" fill="rgba(235, 255, 250, 0.58)"></circle><circle r="5" cx="1309.2" cy="650.6" fill="rgba(235, 255, 250, 0.58)"></circle><circle r="5" cx="1462.5" cy="104.73" fill="rgba(235, 255, 250, 0.58)"></circle><circle r="5" cx="1388.59" cy="262.12" fill="rgba(235, 255, 250, 0.58)"></circle><circle r="5" cx="1400.33" cy="404.27" fill="rgba(235, 255, 250, 0.58)"></circle><circle r="5" cx="1453.17" cy="641.91" fill="rgba(235, 255, 250, 0.58)"></circle><circle r="5" cx="1560.57" cy="38.34" fill="rgba(235, 255, 250, 0.58)"></circle><circle r="5" cx="1552.05" cy="241.47" fill="rgba(235, 255, 250, 0.58)"></circle><circle r="5" cx="1607.42" cy="360.17" fill="rgba(235, 255, 250, 0.58)"></circle><circle r="5" cx="1571.74" cy="503.14" fill="rgba(235, 255, 250, 0.58)"></circle><circle r="5" cx="1548.18" cy="665.48" fill="rgba(235, 255, 250, 0.58)"></circle></g><defs><mask id="SvgjsMask1016"><rect width="1440" height="560" fill="#ffffff"></rect></mask><radialGradient id="SvgjsRadialGradient1017"><stop stop-color="#ffffff" offset="0.1"></stop><stop stop-color="rgba(0, 255, 186, 0.16)" offset="0.2"></stop><stop stop-color="rgba(0, 255, 186, 0)" offset="1"></stop></radialGradient></defs></svg>